# xmcd CD database file
#
# Track frame offsets:
#	150
#	17510
#	32780
#	55245
#	69465
#	82948
#	99460
#	112030
#	125945
#	140578
#	154060
#	167645
#	183183
#	199185
#	220108
#	234975
#	253573
#	273278
#	284583
#	297465
#
# Disc length: 4318 seconds
#
# Revision: 0
# Processed by: cddbd v1.5.1PL0 Copyright (c) Steve Scherf et al.
# Submitted via: CDex 1.51
#
DISCID=2710dc14
DTITLE=Ramsey Lewis - Collection
DYEAR=1995
DGENRE=Jazz
TTITLE0=Wade In The Water
TTITLE1=Something You Got
TTITLE2=A Hard Day's Night
TTITLE3=Hang On Sloopy
TTITLE4=Aint That Peculiar
TTITLE5=Blues For The Night Owl
TTITLE6=High Heel Sneakers
TTITLE7=Function At The Junction
TTITLE8=Uptight (Everthing's Alright)
TTITLE9=Lonely Avenue
TTITLE10=Day Tripper
TTITLE11=1-2-3
TTITLE12=Felicidade (Happiness)
TTITLE13=Les Fleurs
TTITLE14=The Caves
TTITLE15=Since I Fell For You
TTITLE16=All My Love Belongs To You
TTITLE17=He's A Real Gone Guy
TTITLE18=Soul Man
TTITLE19=The "In" Crowd
EXTD=YEAR: 1995
EXTT0=
EXTT1=
EXTT2=
EXTT3=
EXTT4=
EXTT5=
EXTT6=
EXTT7=
EXTT8=
EXTT9=
EXTT10=
EXTT11=
EXTT12=
EXTT13=
EXTT14=
EXTT15=
EXTT16=
EXTT17=
EXTT18=
EXTT19=
PLAYORDER=
